#!OML:ASF F:\VICON\USERDATA\INSTALL\rory3\rory3.ASF
:FULLY-SPECIFIED
:DEGREES
4845
root 1.86808 17.574 -3.48078 4.97788 -32.5038 4.00791
lowerback 6.46247 -0.771565 -5.93551
upperback 0.0615589 -1.44648 0.768655
thorax -3.39879 -0.616331 4.26927
lowerneck -21.1627 -1.08335 -9.81827
upperneck 21.9349 0.0966277 6.18066
head 10.5299 -0.0365424 3.87873
rclavicle -1.18973e-013 2.18663e-014
rhumerus -26.7512 12.2376 -77.7696
rradius 123.478
rwrist 1.23843
rhand -18.5275 31.4812
rfingers 7.12502
rthumb 7.76124 1.64368
lclavicle -1.18973e-013 2.18663e-014
lhumerus -1.48689 -9.99508 80.4056
lradius 119.116
lwrist 2.90727
lhand -14.1002 7.91137
lfingers 7.12502
lthumb 12.0325 37.5455
rfemur -9.0813 0.516418 20.2512
rtibia 51.4623
rfoot -11.2445 -4.09263
rtoes -9.85984
lfemur -20.4577 -0.197305 -12.2469
ltibia 50.2185
lfoot -5.86047 -6.37089
ltoes -32.253
4846
root 1.92131 17.4361 -3.49222 5.06327 -32.5749 4.29289
lowerback 5.9385 -0.677512 -5.98234
upperback -0.0700686 -1.30429 0.473099
thorax -3.26378 -0.548446 3.96449
lowerneck -21.3823 -1.17869 -9.96044
upperneck 22.0093 0.0105097 6.27025
head 10.6064 -0.0760641 3.92796
rclavicle 7.27055e-014 -5.36719e-015
rhumerus -27.0791 11.9754 -78.1739
rradius 123.779
rwrist 1.34531
rhand -18.4102 31.5966
rfingers 7.12502
rthumb 7.87442 1.76321
lclavicle 7.27055e-014 -5.36719e-015
lhumerus -1.39339 -9.63815 80.1708
lradius 119.346
lwrist 2.62678
lhand -14.3715 8.35375
lfingers 7.12502
lthumb 11.7709 38.003
rfemur -7.99842 0.701734 20.4352
rtibia 50.0645
rfoot -15.7264 -3.51429
rtoes -11.1928
lfemur -20.5513 -0.677021 -12.0186
ltibia 50.009
lfoot -7.0648 -8.93538
ltoes -34.3905
4847
root 1.9778 17.2953 -3.50476 5.15954 -32.6975 4.64677
lowerback 5.45222 -0.579164 -6.06978
upperback -0.231003 -1.16071 0.195625
thorax -3.17792 -0.476912 3.70514
lowerneck -21.6342 -1.25659 -10.2227
upperneck 22.1201 -0.0309937 6.45099
head 10.6982 -0.0945912 4.03915
rclavicle -9.30312e-014 1.72943e-014
rhumerus -27.3458 11.7913 -78.5101
rradius 124.189
rwrist 1.06739
rhand -18.1231 31.5731
rfingers 7.12502
rthumb 8.1515 1.75034
lclavicle -9.30312e-014 1.72943e-014
lhumerus -1.13644 -9.29423 79.9651
lradius 119.505
lwrist 2.38245
lhand -14.705 8.90771
lfingers 7.12502
lthumb 11.4493 38.5751
rfemur -7.09661 0.88643 20.5112
rtibia 48.8668
rfoot -20.0988 -3.51786
rtoes -10.9296
lfemur -20.5113 -1.33151 -11.8806
ltibia 49.6189
lfoot -9.67834 -11.4809
ltoes -36.7471
4848
root 2.03693 17.1631 -3.51802 5.18427 -32.8559 5.10703
lowerback 5.10368 -0.412061 -6.22188
upperback -0.412402 -0.939025 -0.0816219
thorax -3.19699 -0.361868 3.48126
lowerneck -21.8971 -1.40603 -10.5295
upperneck 22.2517 -0.140366 6.57532
head 10.8077 -0.155452 4.12793
rclavicle -1.7667e-014 -1.0138e-014
rhumerus -27.6502 11.5678 -78.6693
rradius 124.667
rwrist 0.666755
rhand -17.9274 31.464
rfingers 7.12502
rthumb 8.34043 1.64869
lclavicle -1.7667e-014 -1.0138e-014
lhumerus -0.842682 -8.96325 79.8775
lradius 119.666
lwrist 2.11001
lhand -14.6836 9.0132
lfingers 7.12502
lthumb 11.4699 38.6794
rfemur -6.32328 1.03369 20.4142
rtibia 47.8131
rfoot -24.296 -4.34535
rtoes -12.0726
lfemur -20.37 -2.07691 -11.9281
ltibia 49.2401
lfoot -13.0504 -13.1165
ltoes -39.6936
4849
root 2.09616 17.0377 -3.52599 5.04221 -33.1518 5.62409
lowerback 4.88598 -0.19336 -6.31846
upperback -0.52176 -0.653708 -0.416289
thorax -3.22138 -0.21849 3.16457
lowerneck -22.5645 -1.59935 -10.4676
upperneck 22.6989 -0.279027 6.25507
head 11.1158 -0.257994 3.99937
rclavicle -8.05078e-014 1.45113e-014
rhumerus -27.8278 11.4064 -78.8138
rradius 125.092
rwrist 0.404896
rhand -17.8942 31.2495
rfingers 7.12502
rthumb 8.37244 1.43544
lclavicle -8.05078e-014 1.45113e-014
lhumerus -0.5985 -8.54515 79.8655
lradius 119.839
lwrist 1.6609
lhand -14.3389 8.70337
lfingers 7.12502
lthumb 11.8024 38.3508
rfemur -5.56521 1.05132 20.1031
rtibia 46.8619
rfoot -28.247 -4.61328
rtoes -13.4634
lfemur -20.0709 -2.51503 -12.1337
ltibia 49.0243
lfoot -14.3603 -15.6873
ltoes -36.9503
4850
root 2.15339 16.9081 -3.53331 4.73962 -33.6038 6.26898
lowerback 4.72995 0.0644681 -6.56702
upperback -0.617909 -0.329257 -0.743804
thorax -3.26773 -0.052852 2.93901
lowerneck -22.9646 -1.69103 -10.2757
upperneck 22.9061 -0.294822 5.75128
head 11.2728 -0.314627 3.78638
rclavicle 3.55328e-015 4.67144e-015
rhumerus -27.9491 11.2799 -78.8802
rradius 125.582
rwrist -0.143464
rhand -17.6915 31.2059
rfingers 7.12502
rthumb 8.56802 1.3997
lclavicle 3.55328e-015 4.67144e-015
lhumerus -0.442973 -8.12977 79.9358
lradius 119.951
lwrist 1.05195
lhand -14.1211 8.50423
lfingers 7.12502
lthumb 12.0124 38.1395
rfemur -4.95263 1.05785 19.559
rtibia 46.0506
rfoot -31.4597 -4.26612
rtoes -11.6102
lfemur -19.7766 -2.42767 -12.5438
ltibia 49.0129
lfoot -15.4014 -18.8891
ltoes -32.0353
4851
root 2.21333 16.7831 -3.54718 4.43548 -33.9841 6.8457
lowerback 4.83481 0.281683 -6.83501
upperback -0.856426 -0.0838888 -0.944711
thorax -3.60102 0.0874781 2.86185
lowerneck -22.3297 -1.59731 -10.6619
upperneck 22.4097 -0.129627 5.89591
head 10.9525 -0.247571 3.90865
rclavicle 1.78409e-014 -3.19049e-014
rhumerus -28.2115 11.332 -78.7407
rradius 126.156
rwrist -0.965931
rhand -17.1635 31.2526
rfingers 7.12502
rthumb 9.0776 1.46793
lclavicle 1.78409e-014 -3.19049e-014
lhumerus -0.541418 -7.70718 80.1573
lradius 120.09
lwrist 0.458461
lhand -14.1135 8.2145
lfingers 7.12502
lthumb 12.0197 37.8493
rfemur -4.67803 0.91755 19.0134
rtibia 45.4591
rfoot -33.657 -4.5979
rtoes -11.4879
lfemur -19.6814 -2.0616 -13.0028
ltibia 49.143
lfoot -17.1704 -20.9597
ltoes -28.4126
4852
root 2.27259 16.6825 -3.57119 4.32312 -34.1715 6.9762
lowerback 5.31269 0.410841 -6.78124
upperback -1.24574 0.0323738 -0.952025
thorax -4.29005 0.174182 2.81326
lowerneck -21.3067 -1.44428 -11.2796
upperneck 21.8985 0.110088 6.15907
head 10.5489 -0.154078 4.11689
rclavicle 2.0276e-014 7.15625e-015
rhumerus -28.648 11.6691 -78.5155
rradius 126.676
rwrist -1.32892
rhand -16.7284 31.1619
rfingers 7.12502
rthumb 9.49737 1.39596
lclavicle 2.0276e-014 7.15625e-015
lhumerus -0.990859 -7.24687 80.5036
lradius 120.371
lwrist -0.0360009
lhand -14.0784 7.7817
lfingers 7.12502
lthumb 12.0535 37.4146
rfemur -4.6425 0.591862 18.8818
rtibia 45.1713
rfoot -35.3989 -5.82195
rtoes -14.5584
lfemur -19.6856 -1.71681 -13.1562
ltibia 49.3037
lfoot -19.1989 -20.9418
ltoes -22.6629
4853
root 2.3241 16.6047 -3.60162 4.37184 -34.3542 6.87139
lowerback 5.81524 0.61501 -6.57522
upperback -1.54832 0.262458 -0.975798
thorax -4.91377 0.307597 2.64824
lowerneck -20.8878 -1.40432 -11.5475
upperneck 21.7877 0.194452 6.19335
head 10.4224 -0.134993 4.17749
rclavicle 9.61124e-014 -1.45113e-014
rhumerus -29.0137 11.8308 -78.326
rradius 127.03
rwrist -0.976196
rhand -16.5717 30.8784
rfingers 7.12502
rthumb 9.64861 1.11941
lclavicle 9.61124e-014 -1.45113e-014
lhumerus -1.19963 -7.15007 80.7778
lradius 120.666
lwrist -0.331266
lhand -14.0668 7.59999
lfingers 7.12502
lthumb 12.0646 37.2322
rfemur -4.73918 0.375302 18.9672
rtibia 45.2254
rfoot -37.0655 -6.43937
rtoes -14.779
lfemur -19.7047 -1.24215 -13.1933
ltibia 49.4565
lfoot -21.0077 -20.2197
ltoes -21.5164
4854
root 2.36777 16.5427 -3.63 4.50181 -34.6707 6.74792
lowerback 6.11825 0.921489 -6.42573
upperback -1.70021 0.646968 -1.0577
thorax -5.27942 0.505143 2.435
lowerneck -20.953 -1.47153 -11.5096
upperneck 21.8024 0.133265 6.05285
head 10.4477 -0.176743 4.11201
rclavicle 3.47128e-014 2.46493e-014
rhumerus -29.1864 11.749 -78.1727
rradius 127.27
rwrist -0.620937
rhand -16.5072 30.6561
rfingers 7.12502
rthumb 9.71078 0.899981
lclavicle 3.47128e-014 2.46493e-014
lhumerus -1.15997 -7.35257 80.9834
lradius 120.91
lwrist -0.248566
lhand -14.0903 7.73481
lfingers 7.12502
lthumb 12.042 37.3683
rfemur -5.05402 0.263374 19.0214
rtibia 45.5668
rfoot -38.2236 -6.39698
rtoes -13.9601
lfemur -19.7111 -0.570807 -13.3327
ltibia 49.6011
lfoot -22.3937 -20.0215
ltoes -20.4479
4855
root 2.40574 16.4998 -3.66441 4.85022 -34.9112 6.32525
lowerback 6.27293 1.16098 -6.11324
upperback -1.72627 0.977461 -1.08865
thorax -5.41731 0.661878 2.18893
lowerneck -21.1677 -1.59326 -11.4022
upperneck 21.7211 -0.0112549 5.93303
head 10.4736 -0.243654 4.02931
rclavicle 1.43622e-014 -1.25234e-014
rhumerus -29.1076 11.564 -78.1499
rradius 127.361
rwrist -0.522986
rhand -16.9467 30.8944
rfingers 7.12502
rthumb 9.28679 1.11895
lclavicle 1.43622e-014 -1.25234e-014
lhumerus -1.17749 -7.50184 81.1778
lradius 121.169
lwrist 0.0221401
lhand -13.9501 8.02685
lfingers 7.12502
lthumb 12.1772 37.6524
rfemur -5.65059 -0.00831981 19.3194
rtibia 46.1217
rfoot -38.7322 -6.28839
rtoes -14.9429
lfemur -19.8266 0.158957 -13.2318
ltibia 49.7354
lfoot -23.4335 -19.5216
ltoes -19.9113
